<svg id="Layer_1" data-name="Layer 1" xmlns="http://www.w3.org/2000/svg" viewBox="0 0 272.76 230.47"><defs><style>.cls-1{fill:#fff;}.cls-1,.cls-2,.cls-3,.cls-4{stroke:#8cddea;stroke-width:3px;}.cls-1,.cls-4{stroke-miterlimit:10;}.cls-2,.cls-3,.cls-4{fill:none;}.cls-2,.cls-3{stroke-linejoin:round;}.cls-3{stroke-linecap:round;}</style></defs><rect class="cls-1" x="89.77" y="57.84" width="151.57" height="177.83" rx="12" transform="translate(9.07 -26.42) rotate(5.16)"/><rect class="cls-1" x="42.36" y="55.53" width="151.57" height="177.83" rx="12" transform="translate(-21.01 2.82) rotate(-6.77)"/><path class="cls-1" d="M171.11,35.49H80a9.22,9.22,0,0,0-9.19,9.2v159.4A9.21,9.21,0,0,0,80,213.28H213.6a9.22,9.22,0,0,0,9.2-9.19V88.64Z" transform="translate(-4.79 -12.13)"/><path class="cls-2" d="M222.56,87.67h-41.2a10.85,10.85,0,0,1-10.85-10.85V35.62Z" transform="translate(-4.79 -12.13)"/><path class="cls-3" d="M85.16,66.39c7.26,0,7.26,6,14.53,6s7.27-6,14.54-6,7.26,6,14.53,6,7.27-6,14.54-6,7.27,6,14.54,6" transform="translate(-4.79 -12.13)"/><path class="cls-3" d="M85.16,106.87c8.7,0,8.7,6,17.4,6s8.7-6,17.4-6,8.7,6,17.4,6,8.7-6,17.4-6,8.71,6,17.41,6,8.7-6,17.41-6,8.7,6,17.4,6" transform="translate(-4.79 -12.13)"/><path class="cls-3" d="M85.16,127.49c8.7,0,8.7,6,17.4,6s8.7-6,17.4-6,8.7,6,17.4,6,8.7-6,17.4-6,8.71,6,17.41,6,8.7-6,17.41-6,8.7,6,17.4,6" transform="translate(-4.79 -12.13)"/><line class="cls-3" x1="122.54" y1="153.84" x2="198.16" y2="153.84"/><line class="cls-3" x1="151.75" y1="164.9" x2="198.16" y2="164.9"/><path class="cls-4" d="M233.79,14.51,238,22.29a1.69,1.69,0,0,0,.68.67l7.77,4.26a1.7,1.7,0,0,1,0,3l-7.77,4.25a1.71,1.71,0,0,0-.68.68l-4.25,7.77a1.7,1.7,0,0,1-3,0l-4.26-7.77a1.69,1.69,0,0,0-.67-.68L218.1,30.2a1.7,1.7,0,0,1,0-3L225.88,23a1.66,1.66,0,0,0,.67-.67l4.26-7.78A1.7,1.7,0,0,1,233.79,14.51Z" transform="translate(-4.79 -12.13)"/><circle class="cls-4" cx="265.17" cy="49.92" r="6.09"/><path class="cls-4" d="M22.87,208.12l4.25,7.78a1.69,1.69,0,0,0,.68.67l7.77,4.25a1.71,1.71,0,0,1,0,3l-7.77,4.25a1.71,1.71,0,0,0-.68.68l-4.25,7.77a1.71,1.71,0,0,1-3,0l-4.25-7.77a1.71,1.71,0,0,0-.68-.68l-7.77-4.25a1.71,1.71,0,0,1,0-3L15,216.57a1.69,1.69,0,0,0,.68-.67l4.25-7.78A1.71,1.71,0,0,1,22.87,208.12Z" transform="translate(-4.79 -12.13)"/></svg>