<svg width="140" height="140" viewBox="0 0 140 140" fill="none" xmlns="http://www.w3.org/2000/svg">
<rect width="140" height="140" rx="20" fill="url(#paint0_linear)"/>
<g clip-path="url(#clip0)">
<path d="M118.767 97.6849V40.3107C120.654 39.6076 122 37.8011 122 35.6741C122 32.9376 119.769 30.7172 117.018 30.7172C115.954 30.7172 114.975 31.0509 114.165 31.616L107.332 25.4755C107.77 24.7368 108.03 23.878 108.03 22.9569C108.03 20.2204 105.798 18 103.048 18C100.298 18 98.0663 20.2204 98.0663 22.9569C98.0663 23.9626 98.3704 24.8926 98.8847 25.6712L72.2902 57.9092C71.8788 57.7979 71.445 57.7356 70.9978 57.7356C70.7563 57.7356 70.5193 57.7579 70.2867 57.7935L43.3926 25.1818C43.7325 24.5099 43.9292 23.7579 43.9292 22.9525C43.9292 20.2204 41.7022 18 38.952 18C36.2018 18 33.9703 20.2204 33.9703 22.9569C33.9703 23.6333 34.1089 24.274 34.3504 24.8614L27.2311 31.26C26.5558 30.9174 25.7911 30.7216 24.9772 30.7216C22.2315 30.7216 20 32.9376 20 35.6786C20 37.8011 21.346 39.6076 23.2332 40.3151V97.6893C21.346 98.3924 20 100.199 20 102.321C20 105.058 22.2315 107.278 24.9817 107.278C25.7419 107.278 26.4619 107.105 27.1059 106.798L34.3057 113.272C34.0955 113.824 33.9703 114.42 33.9703 115.043C33.9703 117.78 36.2018 120 38.952 120C41.7022 120 43.9337 117.78 43.9337 115.043C43.9337 112.903 42.5698 111.087 40.6603 110.393V47.1276L66.1636 61.5357C66.0742 61.905 66.025 62.2921 66.025 62.6881C66.025 65.4247 68.2565 67.6451 71.0067 67.6451C73.757 67.6451 75.9884 65.4247 75.9884 62.6881C75.9884 62.4123 75.9616 62.1453 75.9169 61.8827L101.349 47.5147V110.393C99.4392 111.087 98.0753 112.903 98.0753 115.043C98.0753 117.78 100.307 120 103.057 120C105.807 120 108.039 117.78 108.039 115.043C108.039 114.171 107.811 113.348 107.413 112.636L114.286 106.455C115.073 106.971 116.017 107.278 117.032 107.278C119.782 107.278 122.013 105.058 122.013 102.321C122 100.199 120.654 98.3924 118.767 97.6849ZM104.922 27.5446C105.23 27.42 105.521 27.2687 105.798 27.0862L112.672 33.2669C112.274 33.9788 112.046 34.7975 112.046 35.6741C112.046 36.217 112.139 36.7421 112.3 37.2315L104.926 41.3964V27.5446H104.922ZM29.628 33.9032L36.8278 27.4289C36.9128 27.4689 36.9978 27.509 37.0827 27.5446V41.0137L29.8025 36.9022C29.9053 36.5107 29.9634 36.1013 29.9634 35.6741C29.959 35.0512 29.8382 34.4549 29.628 33.9032ZM37.0827 110.451C36.9531 110.504 36.8234 110.562 36.7026 110.625L29.5833 104.221C29.8293 103.634 29.9634 102.993 29.9634 102.317C29.9634 100.226 28.6576 98.4369 26.8152 97.7116V40.2795C27.1327 40.155 27.4368 39.9992 27.7185 39.8168L37.0827 45.1074V110.451ZM40.6603 27.6069C40.6871 27.598 40.7139 27.5891 40.7408 27.5757L64.6968 56.6143L40.6603 43.0383V27.6069ZM77.9919 56.6143L101.344 28.3055V43.421L77.9919 56.6143ZM114.617 40.017C114.8 40.1194 114.993 40.2039 115.189 40.284V97.7205C113.347 98.4458 112.041 100.235 112.041 102.326C112.041 103.247 112.3 104.106 112.739 104.844L105.906 110.989C105.602 110.776 105.271 110.598 104.922 110.455V45.4946L114.617 40.017Z" fill="white"/>
</g>
<defs>
<linearGradient id="paint0_linear" x1="150.531" y1="175.31" x2="55.1327" y2="-1.05207e-05" gradientUnits="userSpaceOnUse">
<stop stop-color="#F6F7D1"/>
<stop offset="1" stop-color="#0098BE"/>
</linearGradient>
<clipPath id="clip0">
<rect width="102" height="102" fill="white" transform="translate(20 18)"/>
</clipPath>
</defs>
</svg>
