<svg id="Layer_1" data-name="Layer 1" xmlns="http://www.w3.org/2000/svg" viewBox="0 0 215.67 219.94"><defs><style>.cls-1,.cls-3{fill:#fff;}.cls-1,.cls-2,.cls-3{stroke:#8cddea;stroke-miterlimit:10;stroke-width:2px;}.cls-2{fill:none;}.cls-2,.cls-3{stroke-linecap:round;}</style></defs><rect class="cls-1" x="1" y="1" width="171.21" height="122.45" rx="9.94"/><line class="cls-2" x1="14.93" y1="15.56" x2="156.09" y2="15.56"/><line class="cls-2" x1="14.93" y1="29.06" x2="131.96" y2="29.06"/><line class="cls-2" x1="14.93" y1="42.55" x2="146.98" y2="42.55"/><line class="cls-2" x1="14.93" y1="56.05" x2="110.03" y2="56.05"/><rect class="cls-3" x="101.77" y="78.94" width="112.9" height="140" rx="8.27"/><rect class="cls-3" x="115.03" y="91" width="87.15" height="111.71" rx="3.51"/><line class="cls-2" x1="127.22" y1="108.73" x2="182.86" y2="108.73"/><line class="cls-2" x1="127.22" y1="119.56" x2="190" y2="119.56"/><line class="cls-2" x1="127.22" y1="130.39" x2="172.43" y2="130.39"/><path class="cls-3" d="M226.16,85.65H208A10.45,10.45,0,0,0,197.5,75.21H179.24a10.45,10.45,0,0,0-10.45,10.44H150.58A4.32,4.32,0,0,0,146.26,90v6.28a4.31,4.31,0,0,0,4.32,4.32h75.58a4.31,4.31,0,0,0,4.32-4.32V90A4.32,4.32,0,0,0,226.16,85.65Z" transform="translate(-30.15 -19.59)"/><circle class="cls-3" cx="158.22" cy="68.15" r="6.78"/><line class="cls-2" x1="34.11" y1="101.99" x2="34.11" y2="182.41"/><line class="cls-2" x1="34.4" y1="101.99" x2="43.34" y2="97.97"/><line class="cls-2" x1="33.45" y1="101.99" x2="24.51" y2="97.97"/><line class="cls-2" x1="33.45" y1="183.47" x2="24.51" y2="187.49"/><line class="cls-2" x1="34.4" y1="183.47" x2="43.34" y2="187.49"/></svg>